<?xml version="1.0" standalone="no"?>
<!DOCTYPE svg PUBLIC "-//W3C//DTD SVG 20010904//EN"
 "http://www.w3.org/TR/2001/REC-SVG-20010904/DTD/svg10.dtd">
<svg version="1.0" xmlns="http://www.w3.org/2000/svg"
 width="1589.000000pt" height="924.000000pt" viewBox="0 0 1589.000000 924.000000"
 preserveAspectRatio="xMidYMid meet">

<g transform="translate(0.000000,924.000000) scale(0.100000,-0.100000)"
fill="#000000" stroke="none">
<path d="M3980 7834 c-205 -98 -397 -249 -700 -553 -544 -544 -860 -1014 -864
-1281 -1 -65 3 -84 29 -135 17 -32 56 -87 87 -121 112 -120 245 -160 638 -194
332 -29 573 -81 729 -156 78 -38 109 -61 176 -128 108 -107 155 -198 155 -295
-1 -123 -58 -226 -318 -573 -230 -308 -380 -534 -457 -693 -69 -142 -85 -195
-85 -281 0 -53 3 -60 39 -94 47 -45 119 -80 165 -80 82 0 164 49 300 180 137
131 261 274 342 395 124 187 191 355 239 610 27 142 51 219 100 315 45 91 505
538 886 860 105 89 370 290 382 290 2 0 -8 -64 -21 -142 -21 -120 -25 -178
-26 -363 -1 -198 1 -229 22 -310 29 -117 106 -273 176 -357 78 -94 197 -192
285 -236 69 -34 82 -37 160 -37 105 1 174 22 356 110 337 163 576 372 919 803
98 123 179 222 182 220 2 -3 -8 -110 -22 -239 -23 -203 -25 -261 -21 -439 6
-210 18 -296 58 -420 43 -132 123 -242 209 -286 50 -25 153 -24 205 3 119 62
182 182 463 868 271 661 315 758 358 777 17 8 53 5 141 -11 66 -11 140 -21
165 -21 100 0 308 56 511 137 99 39 142 52 150 44 7 -7 7 -44 -3 -126 -14
-129 -8 -198 21 -265 26 -59 53 -86 106 -106 85 -33 191 5 296 105 115 109
685 842 936 1206 115 166 160 218 202 236 36 14 79 4 79 -18 0 -9 -27 -58 -60
-108 -75 -115 -142 -257 -218 -465 -185 -508 -355 -1153 -419 -1585 -26 -175
-25 -573 0 -664 26 -90 48 -130 111 -198 76 -82 131 -108 226 -108 67 1 84 5
160 42 47 23 125 72 174 109 107 81 355 320 510 493 422 469 1224 1502 1251
1614 10 37 -20 114 -46 122 -56 18 -173 -114 -651 -733 -529 -685 -1036 -1244
-1296 -1429 -56 -40 -73 -48 -123 -51 -54 -4 -60 -2 -88 25 -36 37 -49 79 -62
213 -33 333 70 946 254 1525 138 431 264 736 519 1255 175 356 214 448 234
542 18 85 7 135 -37 172 -103 87 -158 44 -565 -449 -270 -328 -332 -380 -421
-356 -56 16 -162 13 -224 -5 -193 -58 -383 -213 -588 -482 -125 -165 -211
-229 -456 -340 -244 -110 -423 -165 -542 -166 -73 -1 -85 2 -105 22 -46 45
-27 172 77 538 101 350 103 386 35 448 -48 43 -68 45 -105 9 -50 -51 -95 -154
-224 -516 -170 -474 -558 -1424 -720 -1763 -128 -265 -198 -290 -237 -84 -14
70 -15 130 -11 340 10 442 75 827 215 1260 90 277 94 319 40 378 -30 32 -62
28 -91 -10 -14 -18 -87 -136 -162 -263 -348 -581 -582 -908 -835 -1169 -199
-204 -366 -329 -585 -436 -142 -70 -222 -92 -328 -92 -67 -1 -86 4 -141 31
-82 40 -158 122 -205 221 -34 71 -36 81 -39 202 -7 221 22 459 88 720 47 185
121 358 153 358 25 0 59 -33 114 -112 65 -93 146 -176 180 -184 34 -9 94 20
185 89 254 191 424 505 389 719 -14 85 -39 136 -97 198 -217 232 -549 85 -867
-385 -113 -167 -240 -290 -627 -605 -91 -74 -257 -214 -370 -311 -183 -158
-267 -232 -584 -523 -49 -45 -90 -75 -95 -70 -4 5 -36 50 -71 99 -300 429
-496 536 -1145 630 -388 56 -548 88 -576 116 -99 99 235 632 728 1164 208 225
401 396 620 551 146 104 229 180 239 219 14 54 -22 85 -99 85 -29 0 -72 -15
-137 -46z m2874 -1035 c60 -28 59 -116 -4 -242 -93 -185 -286 -397 -363 -397
-24 0 -98 80 -134 145 -32 59 -35 123 -8 175 40 77 207 226 315 280 90 46 151
58 194 39z m4245 2 c19 -12 10 -42 -43 -134 -118 -207 -566 -783 -672 -863
-135 -103 -67 216 107 502 33 55 85 131 114 170 87 113 280 264 401 313 55 22
73 25 93 12z m-6951 -2599 c4 -28 -62 -139 -174 -293 -118 -160 -173 -219
-207 -219 -37 0 -35 26 8 109 76 145 323 440 358 429 6 -3 13 -14 15 -26z"/>
<path d="M6183 3086 c-77 -88 -202 -318 -583 -1078 -149 -295 -270 -543 -270
-551 0 -8 13 -17 30 -21 78 -15 127 43 255 298 l80 161 135 -3 c245 -5 844
-22 845 -25 30 -69 145 -309 166 -346 40 -69 71 -83 197 -89 67 -3 102 -1 102
6 0 5 -108 231 -240 502 -462 949 -596 1190 -659 1190 -10 0 -37 -20 -58 -44z
m136 -455 c136 -272 285 -611 273 -623 -21 -21 -104 -27 -377 -27 -270 -1
-409 9 -429 29 -7 7 -5 23 3 48 40 111 311 652 379 755 l26 39 18 -22 c10 -12
58 -102 107 -199z"/>
<path d="M8423 3089 c-49 -14 -55 -53 -62 -371 l-6 -277 -111 73 c-149 98
-221 121 -369 120 -91 -1 -122 -5 -183 -27 -184 -65 -317 -200 -374 -382 -28
-89 -30 -248 -4 -345 29 -110 84 -208 156 -281 111 -112 245 -162 435 -163
134 0 222 23 337 90 100 57 118 57 118 3 0 -22 4 -49 10 -59 14 -26 63 -40
136 -40 l64 0 -1 658 c0 701 -7 930 -30 978 -11 23 -21 29 -49 31 -19 1 -49
-3 -67 -8z m-434 -540 c84 -19 154 -61 237 -144 46 -46 90 -101 105 -130 22
-47 24 -60 24 -210 0 -178 -13 -243 -66 -352 -36 -75 -100 -134 -178 -165 -46
-19 -75 -23 -171 -23 -104 0 -120 3 -170 26 -159 76 -254 239 -267 459 -12
219 80 416 235 498 92 49 165 61 251 41z"/>
<path d="M9305 2634 c-148 -23 -290 -107 -337 -198 -29 -56 -31 -175 -4 -230
42 -83 160 -138 431 -200 375 -85 473 -141 462 -258 -6 -73 -50 -134 -122
-174 -78 -43 -164 -58 -306 -52 -141 6 -173 19 -290 124 -122 108 -227 154
-237 101 -10 -54 99 -187 201 -246 92 -52 172 -64 397 -58 296 9 361 25 458
112 79 71 107 125 107 205 -1 78 -18 115 -85 180 -91 88 -244 153 -500 210
-230 51 -296 83 -320 156 -36 108 75 215 254 245 146 25 247 -7 367 -116 80
-72 162 -125 195 -125 49 0 58 50 19 115 -68 116 -290 203 -535 210 -69 2
-138 1 -155 -1z"/>
</g>
</svg>
